<?xml version="1.0" standalone="no"?><!DOCTYPE svg PUBLIC "-//W3C//DTD SVG 1.1//EN" "http://www.w3.org/Graphics/SVG/1.1/DTD/svg11.dtd"><svg class="icon" width="128px" height="28.44px" viewBox="0 0 4608 1024" version="1.1" xmlns="http://www.w3.org/2000/svg"><path d="M567.854545 505.018182c-25.6 6.981818-32.581818 44.218182-13.963636 60.509091 16.290909 18.618182 51.2 11.636364 60.509091-13.963637 11.636364-25.6-18.618182-58.181818-46.545455-46.545454z" fill="#1afa29" /><path d="M861.090909 0H162.909091C72.145455 0 0 72.145455 0 162.909091v698.181818c0 90.763636 72.145455 162.909091 162.909091 162.909091h698.181818c90.763636 0 162.909091-72.145455 162.909091-162.909091V162.909091c0-90.763636-72.145455-162.909091-162.909091-162.909091zM265.309091 653.963636c-34.909091 18.618182-51.2 30.254545-90.763636 46.545455 4.654545-32.581818 6.981818-58.181818 16.290909-88.436364-53.527273-37.236364-100.072727-90.763636-116.363637-155.927272-16.290909-58.181818 0-100.072727 30.254546-151.272728 34.909091-55.854545 90.763636-97.745455 153.6-121.018182 93.090909-34.909091 202.472727-25.6 290.909091 23.272728 65.163636 37.236364 114.036364 97.745455 132.654545 179.2-134.981818-2.327273-321.163636 67.490909-274.618182 286.254545-44.218182 0-100.072727-4.654545-141.963636-18.618182z m633.018182 41.890909c-16.290909 34.909091-46.545455 62.836364-76.8 86.109091 9.309091 23.272727 16.290909 48.872727 23.272727 72.145455-27.927273-13.963636-60.509091-37.236364-88.436364-48.872727-46.545455 13.963636-109.381818 18.618182-158.254545 9.309091-69.818182-11.636364-116.363636-46.545455-153.6-107.054546-25.6-39.563636-34.909091-90.763636-25.6-137.309091 13.963636-62.836364 51.2-109.381818 109.381818-134.981818 86.109091-41.890909 193.163636-39.563636 272.290909 0 46.545455 23.272727 81.454545 55.854545 102.4 102.4 23.272727 48.872727 20.945455 109.381818-4.654545 158.254545zM4475.345455 339.781818V146.618182h-44.218182v190.836363h-372.363637v44.218182h372.363637v416.581818c0 46.545455-27.927273 67.490909-81.454546 67.49091h-25.6v44.218181h39.563637c44.218182 0 67.490909-9.309091 88.436363-27.927272 18.618182-18.618182 27.927273-46.545455 25.6-83.781819V384h121.018182v-44.218182h-123.345454z" fill="#1afa29" /><path d="M262.981818 293.236364c-30.254545 9.309091-37.236364 53.527273-11.636363 69.818181 20.945455 18.618182 58.181818 4.654545 65.163636-23.272727 6.981818-27.927273-25.6-58.181818-53.527273-46.545454zM751.709091 502.690909c-18.618182 0-30.254545 18.618182-34.909091 34.909091 2.327273 9.309091 4.654545 20.945455 11.636364 27.927273 16.290909 16.290909 46.545455 11.636364 55.854545-9.309091 16.290909-23.272727-6.981818-55.854545-32.581818-53.527273zM1442.909091 488.727273h253.672727v41.890909H1442.909091zM1717.527273 218.763636H1675.636364v146.618182h-79.127273v-209.454545h-41.890909v209.454545h-83.781818V218.763636h-41.890909v186.181819h288.581818zM1410.327273 169.890909l-39.563637-23.272727c-39.563636 83.781818-90.763636 153.6-148.945454 207.127273l25.6 41.890909c65.163636-65.163636 121.018182-141.963636 162.909091-225.745455zM458.472727 363.054545c23.272727 20.945455 65.163636 2.327273 65.163637-30.254545 2.327273-27.927273-27.927273-48.872727-53.527273-39.563636-30.254545 9.309091-37.236364 51.2-11.636364 69.818181zM4156.509091 525.963636c25.6 53.527273 58.181818 116.363636 90.763636 193.163637l44.218182-25.6c-25.6-48.872727-55.854545-114.036364-95.418182-190.836364l-39.563636 23.272727zM3828.363636 530.618182l25.6 41.890909c25.6-39.563636 53.527273-83.781818 81.454546-132.654546v486.4h44.218182V349.090909c25.6-58.181818 51.2-116.363636 69.818181-179.2l-41.890909-23.272727c-41.890909 144.290909-102.4 274.618182-179.2 384zM2420.363636 898.327273h442.181819V646.981818h-442.181819v251.345455z m44.218182-209.454546h353.745455v167.563637h-353.745455v-167.563637zM2406.4 514.327273h467.781818V558.545455h-467.781818zM2406.4 386.327273h467.781818v41.890909h-467.781818zM2678.690909 235.054545c-2.327273-9.309091-9.309091-27.927273-20.945454-46.545454-9.309091-18.618182-16.290909-34.909091-20.945455-46.545455l-41.890909 23.272728v2.327272c13.963636 27.927273 27.927273 53.527273 39.563636 76.8 2.327273 2.327273 2.327273 4.654545 2.327273 6.981819h-274.618182v44.218181h563.2v-41.890909h-274.618182l27.927273-18.618182zM1754.763636 749.381818l-20.945454-34.909091-2.327273-2.327272-62.836364 55.854545v-155.927273h-216.436363V674.909091c4.654545 86.109091-16.290909 146.618182-65.163637 183.854545h-2.327272l23.272727 39.563637 2.327273 2.327272 2.327272-2.327272c60.509091-48.872727 90.763636-118.690909 86.109091-207.127273V651.636364h128v93.090909c-2.327273 32.581818-2.327273 41.890909-13.963636 58.181818l25.6 44.218182 2.327273-2.327273c20.945455-18.618182 60.509091-48.872727 114.036363-95.418182zM1405.672727 381.672727l-39.563636-23.272727v2.327273c-39.563636 97.745455-90.763636 181.527273-153.6 253.672727l23.272727 39.563636 2.327273 2.327273 2.327273-2.327273c25.6-27.927273 48.872727-58.181818 72.145454-90.763636v360.727273H1349.818182V495.709091c18.618182-34.909091 37.236364-72.145455 55.854545-114.036364zM3418.763636 139.636364h-46.545454v114.036363h-353.745455v44.218182h353.745455v146.618182H3141.818182v39.563636s34.909091 79.127273 107.054545 165.236364c27.927273 34.909091 62.836364 69.818182 104.727273 107.054545-81.454545 48.872727-181.527273 95.418182-321.163636 123.345455l25.6 46.545454s165.236364-34.909091 330.472727-139.636363c20.945455 13.963636 123.345455 95.418182 314.181818 139.636363h2.327273l18.618182-34.90909s-48.872727-13.963636-123.345455-41.89091c-51.2-20.945455-116.363636-51.2-179.2-90.763636 93.090909-67.490909 174.545455-165.236364 223.418182-288.581818l-37.236364-20.945455h-193.163636V302.545455h358.4v-46.545455h-356.072727V139.636364z m174.545455 344.436363s-46.545455 130.327273-204.8 242.036364c-74.472727-58.181818-153.6-139.636364-202.472727-242.036364h407.272727zM2129.454545 530.618182l25.6 41.890909C2180.654545 535.272727 2206.254545 488.727273 2234.181818 442.181818v486.4h46.545455V349.090909c25.6-58.181818 51.2-116.363636 69.818182-179.2l-41.89091-23.272727c-44.218182 144.290909-102.4 274.618182-179.2 384z" fill="#1afa29" /><path d="M1880.436364 146.618182h-44.218182c-27.927273 125.672727-69.818182 237.381818-123.345455 321.163636l25.6 46.545455 18.618182-39.563637c6.981818-13.963636 13.963636-23.272727 16.290909-32.581818 13.963636 111.709091 37.236364 202.472727 67.490909 267.636364-30.254545 53.527273-79.127273 107.054545-141.963636 162.909091h-2.327273l25.6 41.890909 2.327273 2.327273 2.327273-2.327273c67.490909-60.509091 111.709091-116.363636 137.309091-160.581818 27.927273 48.872727 74.472727 107.054545 128 162.909091l2.327272 2.327272 25.6-41.890909-2.327272-2.327273c-58.181818-55.854545-104.727273-114.036364-130.327273-162.90909 46.545455-86.109091 76.8-211.781818 88.436363-374.69091H2024.727273v-41.890909h-186.181818c16.290909-46.545455 34.909091-102.4 41.890909-148.945454z m55.854545 195.490909c-9.309091 134.981818-32.581818 244.363636-67.490909 321.163636-27.927273-69.818182-46.545455-165.236364-60.509091-283.927272 4.654545-13.963636 9.309091-25.6 16.290909-37.236364h111.709091z" fill="#1afa29" /></svg>